# xmcd
#
# Track frame offsets:
#	182
#	13747
#	30195
#	48535
#	69810
#	87012
#	105262
#	125222
#	136837
#	149255
#
# Disc length: 2221 seconds
#
# Revision: 5
# Processed by: cddbd v1.5.2PL0 Copyright (c) Steve Scherf et al.
# Submitted via: audiograbber 1.83.01
#
DISCID=7908ab0a
DTITLE=Various Artist - New Country - September 1994
DYEAR=1994
DGENRE=Country
TTITLE0=Jon Randall - This Heart
TTITLE1=Radney Foster - Labor Of Love
TTITLE2=Peter Rowan - Faith, Love And Devotion
TTITLE3=Jimmy LaFave - The Open Road
TTITLE4=5 Chinese Brothers - She's A Waitress (And I'm In Love)
TTITLE5=Billy Sprague - Press On
TTITLE6=The Blazers - El Año Viejo
TTITLE7=Joy Lynn White - Wild Love
TTITLE8=Blood Oranges - Sally
TTITLE9=The Tractors - Baby Likes To Rock It
EXTD=
EXTT0=Jon Randall
EXTT1=Radney Foster
EXTT2=Peter Rowan
EXTT3=Jimmy LaFave
EXTT4=5 Chinese Brothers
EXTT5=Billy Sprague
EXTT6=The Blazers
EXTT7=Joy Lynn White
EXTT8=Blood Oranges
EXTT9=The Tractors
PLAYORDER=
